<svg width="126" height="32" viewBox="0 0 126 32" fill="none" xmlns="http://www.w3.org/2000/svg">
<g filter="url(#filter0_d_1_12)">
<path d="M4.52051 9.7955C4.52051 8.2552 4.89781 6.8327 5.65221 5.5282C6.42231 4.2236 7.45971 3.1941 8.76431 2.4397C10.0688 1.6695 11.4912 1.2844 13.0316 1.2844C14.6033 1.2844 16.0572 1.6931 17.3932 2.5104C18.7291 3.312 19.7586 4.3808 20.4816 5.7168L17.7704 7.1549C17.2989 6.3219 16.6387 5.6539 15.79 5.1509C14.9412 4.6323 14.0218 4.3729 13.0316 4.3729C12.0571 4.3729 11.1455 4.6166 10.2967 5.1038C9.46371 5.591 8.80351 6.2512 8.31631 7.0842C7.82911 7.9172 7.58541 8.821 7.58541 9.7955C7.58541 10.77 7.82911 11.6737 8.31631 12.5067C8.80351 13.3398 9.46371 13.9999 10.2967 14.4871C11.1455 14.9744 12.0571 15.218 13.0316 15.218C14.0532 15.218 14.9805 14.9587 15.8136 14.44C16.6623 13.9213 17.3224 13.2297 17.794 12.3653L20.5052 13.8506C19.7822 15.2023 18.7527 16.2868 17.4167 17.1041C16.0807 17.9057 14.619 18.3065 13.0316 18.3065C11.4912 18.3065 10.0688 17.9293 8.76431 17.1748C7.45971 16.4047 6.42231 15.3673 5.65221 14.0628C4.89781 12.7582 4.52051 11.3358 4.52051 9.7955ZM25.6701 14.6757C25.6701 14.9272 25.7329 15.108 25.8587 15.218C25.9844 15.328 26.1809 15.383 26.4481 15.383C26.6524 15.383 26.896 15.3595 27.179 15.3123V18C26.5974 18.0943 26.0552 18.1415 25.5522 18.1415C24.6406 18.1415 23.9412 17.9057 23.4539 17.4342C22.9824 16.9469 22.7466 16.0903 22.7466 14.8644V1.4966H25.6701V14.6757ZM34.3653 5.9054C35.497 5.9054 36.5107 6.1883 37.4066 6.7541C38.3182 7.3042 39.0255 8.0508 39.5285 8.9939C40.0314 9.9369 40.2829 10.9821 40.2829 12.1295C40.2829 12.5067 40.2515 12.8525 40.1886 13.1669H31.0882C31.324 13.9999 31.7405 14.6522 32.3377 15.1237C32.935 15.5795 33.6973 15.8074 34.6246 15.8074C35.1905 15.8074 35.7327 15.6817 36.2514 15.4302C36.7858 15.1787 37.1866 14.8565 37.4538 14.4636L39.6935 15.7838C39.1434 16.6011 38.4283 17.2298 37.5481 17.6699C36.6836 18.0943 35.6856 18.3065 34.5539 18.3065C33.2965 18.3065 32.1806 18.0393 31.2061 17.5049C30.2316 16.9705 29.4771 16.2318 28.9428 15.2887C28.4241 14.3457 28.1647 13.2848 28.1647 12.1059C28.1647 10.9428 28.4241 9.8898 28.9428 8.9467C29.4771 8.0037 30.2159 7.265 31.1589 6.7306C32.102 6.1804 33.1708 5.9054 34.3653 5.9054ZM37.5481 10.88C37.4223 10.1255 37.0687 9.5361 36.4872 9.1118C35.9213 8.6717 35.2062 8.4516 34.3417 8.4516C33.7445 8.4516 33.1943 8.5616 32.6914 8.7817C32.2041 9.0017 31.8112 9.3004 31.5126 9.6776C31.2139 10.0548 31.0568 10.4556 31.041 10.88H37.5481ZM51.374 6.2119H54.298V18H51.374V16.8448C50.824 17.3163 50.219 17.6857 49.559 17.9528C48.915 18.2043 48.231 18.3301 47.5079 18.3301C46.3134 18.3301 45.2682 18.0629 44.3723 17.5285C43.4764 16.9941 42.7848 16.2554 42.2976 15.3123C41.8261 14.3693 41.5903 13.3083 41.5903 12.1295C41.5903 10.9507 41.8261 9.8898 42.2976 8.9467C42.7848 8.0037 43.4764 7.265 44.3723 6.7306C45.2682 6.1804 46.3134 5.9054 47.5079 5.9054C48.231 5.9054 48.915 6.039 49.559 6.3062C50.219 6.5577 50.824 6.9192 51.374 7.3907V6.2119ZM47.8852 15.5245C48.53 15.5245 49.111 15.383 49.63 15.1001C50.164 14.8015 50.581 14.3928 50.879 13.8742C51.194 13.3555 51.351 12.7661 51.351 12.1059C51.351 11.1157 51.013 10.3063 50.337 9.6776C49.677 9.0489 48.86 8.7345 47.8852 8.7345C46.895 8.7345 46.0777 9.0567 45.4332 9.7012C44.8045 10.3299 44.4902 11.1393 44.4902 12.1295C44.4902 13.1197 44.8045 13.937 45.4332 14.5814C46.0777 15.2101 46.895 15.5245 47.8852 15.5245ZM63.294 5.9054C63.985 5.9054 64.685 6.0547 65.392 6.3533C66.115 6.6363 66.728 7.1549 67.231 7.9094C67.749 8.6638 68.009 9.6776 68.009 10.9507V18H65.085V10.9507C65.085 10.0705 64.834 9.4418 64.331 9.0646C63.844 8.6717 63.27 8.4752 62.61 8.4752C61.95 8.4752 61.384 8.711 60.912 9.1825C60.457 9.6383 60.229 10.377 60.229 11.3987V18H57.305V6.2119H60.229V7.2021C60.653 6.8091 61.125 6.4948 61.643 6.259C62.162 6.0233 62.712 5.9054 63.294 5.9054ZM71.845 4.2551C71.295 4.2551 70.863 4.1057 70.549 3.8071C70.234 3.5085 70.077 3.0998 70.077 2.5811C70.077 2.0467 70.234 1.6302 70.549 1.3316C70.863 1.033 71.295 0.883598 71.845 0.883598C72.396 0.883598 72.828 1.033 73.142 1.3316C73.456 1.6302 73.614 2.0467 73.614 2.5811C73.614 3.0841 73.449 3.4928 73.119 3.8071C72.804 4.1057 72.38 4.2551 71.845 4.2551ZM70.36 18V6.2119H73.284V18H70.36ZM82.196 5.9054C82.888 5.9054 83.587 6.0547 84.294 6.3533C85.017 6.6363 85.63 7.1549 86.133 7.9094C86.652 8.6638 86.911 9.6776 86.911 10.9507V18H83.988V10.9507C83.988 10.0705 83.736 9.4418 83.233 9.0646C82.746 8.6717 82.172 8.4752 81.512 8.4752C80.852 8.4752 80.286 8.711 79.815 9.1825C79.359 9.6383 79.131 10.377 79.131 11.3987V18H76.208V6.2119H79.131V7.2021C79.555 6.8091 80.027 6.4948 80.546 6.259C81.064 6.0233 81.614 5.9054 82.196 5.9054ZM98.504 6.2119H101.428V17.4106C101.428 18.5265 101.145 19.5089 100.579 20.3576C100.029 21.2064 99.259 21.8586 98.269 22.3145C97.278 22.786 96.17 23.0217 94.944 23.0217C93.577 23.0217 92.335 22.7545 91.219 22.2201C90.103 21.7015 89.318 21.0178 88.862 20.169L91.361 18.7309C91.597 19.1867 92.037 19.5639 92.681 19.8625C93.326 20.1769 94.104 20.334 95.015 20.334C96.021 20.334 96.854 20.059 97.514 19.5089C98.174 18.9745 98.504 18.2751 98.504 17.4106V16.8683C97.97 17.3399 97.373 17.7014 96.713 17.9528C96.053 18.2043 95.369 18.3301 94.662 18.3301C93.467 18.3301 92.422 18.0629 91.526 17.5285C90.63 16.9941 89.938 16.2554 89.451 15.3123C88.98 14.3693 88.744 13.3083 88.744 12.1295C88.744 10.9507 88.98 9.8898 89.451 8.9467C89.938 8.0037 90.63 7.265 91.526 6.7306C92.422 6.1804 93.467 5.9054 94.662 5.9054C95.369 5.9054 96.045 6.039 96.689 6.3062C97.349 6.5577 97.954 6.9113 98.504 7.3671V6.2119ZM95.039 15.5245C95.683 15.5245 96.265 15.383 96.783 15.1001C97.318 14.8015 97.734 14.3928 98.033 13.8742C98.347 13.3555 98.504 12.7661 98.504 12.1059C98.504 11.1157 98.167 10.3063 97.491 9.6776C96.831 9.0489 96.013 8.7345 95.039 8.7345C94.049 8.7345 93.231 9.0567 92.587 9.7012C91.958 10.3299 91.644 11.1393 91.644 12.1295C91.644 13.1197 91.958 13.937 92.587 14.5814C93.231 15.2101 94.049 15.5245 95.039 15.5245ZM119.072 9.7247L124.423 18H120.746L116.926 12.0824L113.107 18H109.429L114.781 9.7247L109.452 1.4966H113.13L116.926 7.3671L120.722 1.4966H124.4L119.072 9.7247Z" fill="#211F54"/>
</g>
<defs>
<filter id="filter0_d_1_12" x="0.520508" y="0.883598" width="127.902" height="30.1381" filterUnits="userSpaceOnUse" color-interpolation-filters="sRGB">
<feFlood flood-opacity="0" result="BackgroundImageFix"/>
<feColorMatrix in="SourceAlpha" type="matrix" values="0 0 0 0 0 0 0 0 0 0 0 0 0 0 0 0 0 0 127 0" result="hardAlpha"/>
<feOffset dy="4"/>
<feGaussianBlur stdDeviation="2"/>
<feComposite in2="hardAlpha" operator="out"/>
<feColorMatrix type="matrix" values="0 0 0 0 0 0 0 0 0 0 0 0 0 0 0 0 0 0 0.25 0"/>
<feBlend mode="normal" in2="BackgroundImageFix" result="effect1_dropShadow_1_12"/>
<feBlend mode="normal" in="SourceGraphic" in2="effect1_dropShadow_1_12" result="shape"/>
</filter>
</defs>
</svg>
